Coordinates
version=1
nRows=10
nColumns=63
inDegrees=yes

Units are S.I. units (second, meters, Newtons, ...)
If the header above contains a line with 'inDegrees', this indicates whether rotational values are in degrees (yes) or radians (no).

endheader
time	pelvis_tilt	pelvis_list	pelvis_rotation	pelvis_tx	pelvis_ty	pelvis_tz	hip_flexion_r	hip_adduction_r	hip_rotation_r	knee_angle_r	knee_angle_r_beta	ankle_angle_r	subtalar_angle_r	mtp_angle_r	hip_flexion_l	hip_adduction_l	hip_rotation_l	knee_angle_l	knee_angle_l_beta	ankle_angle_l	subtalar_angle_l	mtp_angle_l	L5_S1_Flex_Ext	L5_S1_Lat_Bending	L5_S1_axial_rotation	L4_L5_Flex_Ext	L4_L5_Lat_Bending	L4_L5_axial_rotation	L3_L4_Flex_Ext	L3_L4_Lat_Bending	L3_L4_axial_rotation	L2_L3_Flex_Ext	L2_L3_Lat_Bending	L2_L3_axial_rotation	L1_L2_Flex_Ext	L1_L2_Lat_Bending	L1_L2_axial_rotation	L1_T12_Flex_Ext	L1_T12_Lat_Bending	L1_T12_axial_rotation	Abs_r3	Abs_r2	Abs_r1	Abs_t1	Abs_t2	neck_flexion	neck_bending	neck_rotation	arm_flex_r	arm_add_r	arm_rot_r	elbow_flex_r	pro_sup_r	wrist_flex_r	wrist_dev_r	arm_flex_l	arm_add_l	arm_rot_l	elbow_flex_l	pro_sup_l	wrist_flex_l	wrist_dev_l
2.212766	5.919961	-3.552169	91.435986	-0.107919	0.816440	0.635399	-0.716379	2.689377	-2.347766	5.675262	0.099052	22.430449	8.188831	0.000000	-1.903457	-3.745970	6.738800	1.243039	0.021695	20.748777	-11.485500	0.000000	0.007897	0.913507	0.510802	0.014666	1.214965	0.542728	0.012975	2.221102	0.542728	0.009026	2.221102	0.446952	0.007334	1.862824	0.415027	0.004513	1.415023	0.383102	0.056411	10.333777	2.840930	0.000000	0.000000	22.944252	-3.234828	12.220906	6.594578	-12.795057	126.508985	2.732242	1.484802	0.543496	-7.148464	15.706611	-5.963558	113.236949	18.066793	23.293647	-13.529236	-6.498574
2.234043	5.986111	-3.682849	91.253890	-0.108112	0.816027	0.636356	-0.393093	2.710138	-2.470275	5.933203	0.103554	22.565220	8.481764	0.000000	-1.709932	-3.776100	6.480347	1.233180	0.021523	20.924109	-11.428526	0.000000	0.007704	0.927813	0.556599	0.014307	1.233991	0.591386	0.012657	2.255884	0.591386	0.008805	2.255884	0.487024	0.007154	1.891996	0.452236	0.004402	1.437182	0.417449	0.055030	10.495602	3.095635	0.000000	0.000000	23.318093	-3.564296	12.224636	6.587546	-12.824976	127.514273	2.410977	1.427152	0.391710	-6.904095	15.850196	-5.853620	114.038551	17.817812	23.217867	-13.478431	-5.600992
2.255319	6.045816	-3.830099	90.987872	-0.108189	0.815553	0.637547	-0.018962	2.723710	-2.495266	6.215142	0.108475	22.702067	8.740871	0.000000	-1.500509	-3.796182	6.186107	1.218802	0.021272	21.135246	-11.432434	0.000000	0.007453	0.939064	0.631315	0.013841	1.248955	0.670773	0.012245	2.283239	0.670773	0.008518	2.283239	0.552401	0.006921	1.914939	0.512944	0.004259	1.454610	0.473486	0.053236	10.622876	3.511186	0.000000	0.000000	23.731248	-3.933093	12.038296	6.577048	-12.879142	128.608491	2.131544	1.398984	0.179443	-6.582543	16.072503	-5.584548	116.216783	17.340141	22.601683	-13.382380	-4.681257
2.276596	6.113626	-3.995809	90.684579	-0.108201	0.815034	0.638932	0.402406	2.748799	-2.468729	6.517657	0.113755	22.835586	8.961505	0.000000	-1.267391	-3.824452	5.921588	1.202934	0.020995	21.361065	-11.533037	0.000000	0.008243	0.949408	0.719776	0.015308	1.262712	0.764762	0.013542	2.308390	0.764762	0.009421	2.308390	0.629804	0.007654	1.936032	0.584818	0.004710	1.470633	0.539832	0.058877	10.739891	4.003180	0.000000	0.000000	24.166511	-4.355324	11.716662	6.583854	-12.962050	129.871028	1.893889	1.425168	-0.128448	-6.230657	16.325625	-5.180703	119.631084	16.638588	21.162085	-13.222140	-3.843455
2.297872	6.172557	-4.177568	90.367638	-0.108153	0.814483	0.640449	0.860563	2.769877	-2.456358	6.835225	0.119297	22.980569	9.208296	0.000000	-1.009079	-3.847385	5.637276	1.192495	0.020813	21.619262	-11.614001	0.000000	0.010290	0.956596	0.814103	0.019110	1.272273	0.864984	0.016906	2.325867	0.864984	0.011760	2.325867	0.712340	0.009555	1.950690	0.661459	0.005880	1.481767	0.610577	0.073501	10.821205	4.527796	0.000000	0.000000	24.619175	-4.777103	11.321447	6.620490	-13.049148	131.534830	1.655023	1.461105	-0.521190	-5.828002	16.571617	-4.759230	123.313589	15.850377	19.869210	-13.126175	-2.963744
2.319149	6.212738	-4.367981	90.005041	-0.108018	0.813937	0.642059	1.344466	2.772063	-2.423331	7.163801	0.125032	23.130479	9.503510	0.000000	-0.741156	-3.852412	5.316224	1.181571	0.020622	21.880903	-11.710856	0.000000	0.013113	0.959235	0.926038	0.024351	1.275783	0.983916	0.021543	2.332284	0.983916	0.014986	2.332284	0.810283	0.012176	1.956072	0.752406	0.007493	1.485855	0.694529	0.093662	10.851059	5.150347	0.000000	0.000000	25.073178	-5.203431	10.789531	6.683999	-13.154442	133.455961	1.463343	1.580023	-1.043729	-5.370631	16.865868	-4.253768	127.796262	14.932436	18.405316	-13.047402	-2.093794
2.340426	6.232765	-4.555517	89.660601	-0.107855	0.813409	0.643693	1.822620	2.764065	-2.338092	7.478055	0.130517	23.264355	9.694965	0.000000	-0.467807	-3.842570	4.982914	1.174428	0.020498	22.146615	-11.756432	0.000000	0.015905	0.956817	1.037599	0.029537	1.272567	1.102449	0.026130	2.326406	1.102449	0.018178	2.326406	0.907899	0.014769	1.951142	0.843049	0.009088	1.482110	0.778199	0.113607	10.823709	5.770815	0.000000	0.000000	25.521396	-5.628170	10.137637	6.782639	-13.266386	135.605815	1.314198	1.793104	-1.684224	-4.912793	17.175711	-3.707271	132.967322	13.948503	16.507713	-12.940230	-1.292886
2.361702	6.228223	-4.730623	89.376079	-0.107719	0.812899	0.645298	2.272576	2.735995	-2.282344	7.765867	0.135540	23.395359	9.854914	0.000000	-0.197094	-3.811028	4.683674	1.171274	0.020443	22.407637	-11.768184	0.000000	0.017684	0.948998	1.139113	0.032841	1.262167	1.210308	0.029054	2.307393	1.210308	0.020211	2.307393	0.996724	0.016422	1.935196	0.925529	0.010105	1.469998	0.854335	0.126317	10.735253	6.335406	0.000000	0.000000	25.949284	-5.987114	9.435975	6.906453	-13.370335	137.918898	1.177623	2.057628	-2.392344	-4.456276	17.443257	-3.209735	137.896769	13.003576	15.040027	-12.898910	-0.470808
2.382979	6.201030	-4.891944	89.149248	-0.107633	0.812412	0.646821	2.680736	2.690421	-2.216036	8.007428	0.139756	23.517546	9.942392	0.000000	0.063282	-3.758405	4.423413	1.169000	0.020403	22.642199	-11.770538	0.000000	0.019202	0.936585	1.232908	0.035661	1.245658	1.309964	0.031548	2.277212	1.309964	0.021947	2.277212	1.078794	0.017831	1.909884	1.001738	0.010972	1.450770	0.924681	0.137161	10.594833	6.857063	0.000000	0.000000	26.335838	-6.346567	8.621354	7.031844	-13.468973	140.336712	1.054921	2.370587	-3.171849	-4.006822	17.708964	-2.723266	142.884717	12.113211	13.772954	-12.838757	0.340007
2.404255	6.165487	-5.036205	89.010042	-0.107661	0.811954	0.648208	3.030414	2.638598	-2.193765	8.185682	0.142867	23.617325	9.992094	0.000000	0.309491	-3.697485	4.238893	1.172484	0.020464	22.843101	-11.760006	0.000000	0.020240	0.922915	1.307364	0.037588	1.227476	1.389075	0.033253	2.243975	1.389075	0.023133	2.243975	1.143944	0.018795	1.882008	1.062233	0.011565	1.429595	0.980523	0.144575	10.440195	7.271168	0.000000	0.000000	26.670630	-6.655378	7.820307	7.154175	-13.568208	142.763613	0.942356	2.687083	-3.957809	-3.588771	17.958325	-2.254656	147.749076	11.307635	12.604669	-12.746873	1.101823
